<svg xmlns="http://www.w3.org/2000/svg" width="720" height="320" viewBox="0 0 720 320" fill="none">
  <rect width="720" height="320" rx="16" fill="#0c0e12"/>
  <rect x="24" y="24" width="672" height="48" rx="10" fill="#151921" stroke="#2a3142"/>
  <text x="44" y="54" fill="#f1f5f9" font-family="Segoe UI,sans-serif" font-size="18" font-weight="600">לוח AI</text>
  <text x="120" y="54" fill="#94a3b8" font-family="Segoe UI,sans-serif" font-size="12">טוקנים · שיחות · מודלים</text>
  <rect x="520" y="36" width="160" height="24" rx="6" fill="#151921" stroke="#2a3142"/>
  <text x="600" y="52" fill="#94a3b8" font-family="Segoe UI,sans-serif" font-size="11" text-anchor="middle">רענן</text>
  <rect x="24" y="88" width="156" height="64" rx="10" fill="#151921" stroke="#2a3142"/>
  <rect x="192" y="88" width="156" height="64" rx="10" fill="#151921" stroke="#2a3142"/>
  <rect x="360" y="88" width="156" height="64" rx="10" fill="#151921" stroke="#2a3142"/>
  <rect x="528" y="88" width="168" height="64" rx="10" fill="#151921" stroke="#2a3142"/>
  <text x="44" y="118" fill="#34d399" font-family="Segoe UI,sans-serif" font-size="22" font-weight="700">218K</text>
  <text x="44" y="138" fill="#94a3b8" font-family="Segoe UI,sans-serif" font-size="10">טוקנים פעילים</text>
  <text x="212" y="118" fill="#f1f5f9" font-family="Segoe UI,sans-serif" font-size="22" font-weight="700">3</text>
  <text x="212" y="138" fill="#94a3b8" font-family="Segoe UI,sans-serif" font-size="10">שיחות פעילות</text>
  <text x="380" y="118" fill="#fbbf24" font-family="Segoe UI,sans-serif" font-size="22" font-weight="700">88%</text>
  <text x="380" y="138" fill="#94a3b8" font-family="Segoe UI,sans-serif" font-size="10">הקשר מקסימלי</text>
  <text x="548" y="118" fill="#34d399" font-family="Segoe UI,sans-serif" font-size="22" font-weight="700">2/5</text>
  <text x="548" y="138" fill="#94a3b8" font-family="Segoe UI,sans-serif" font-size="10">מודלים עובדים</text>
  <rect x="24" y="168" width="672" height="128" rx="10" fill="#151921" stroke="#2a3142"/>
  <rect x="40" y="188" width="60" height="20" rx="4" fill="rgba(52,211,153,.2)"/>
  <text x="70" y="202" fill="#34d399" font-family="Segoe UI,sans-serif" font-size="10" text-anchor="middle">פעיל</text>
  <text x="120" y="202" fill="#f1f5f9" font-family="Segoe UI,sans-serif" font-size="11">Fix Hebrew RTL in codebase</text>
  <rect x="520" y="192" width="80" height="6" rx="3" fill="rgba(255,255,255,.08)"/>
  <rect x="520" y="192" width="36" height="6" rx="3" fill="#34d399"/>
  <text x="610" y="200" fill="#94a3b8" font-family="Consolas,monospace" font-size="10">45%</text>
  <rect x="40" y="218" width="60" height="20" rx="4" fill="rgba(251,191,36,.2)"/>
  <text x="70" y="232" fill="#fbbf24" font-family="Segoe UI,sans-serif" font-size="10" text-anchor="middle">אזהרה</text>
  <text x="120" y="232" fill="#f1f5f9" font-family="Segoe UI,sans-serif" font-size="11">Terminal setup assistance</text>
  <rect x="520" y="222" width="80" height="6" rx="3" fill="rgba(255,255,255,.08)"/>
  <rect x="520" y="222" width="58" height="6" rx="3" fill="#fbbf24"/>
  <text x="610" y="230" fill="#94a3b8" font-family="Consolas,monospace" font-size="10">72%</text>
  <rect x="40" y="248" width="60" height="20" rx="4" fill="rgba(248,113,113,.2)"/>
  <text x="70" y="262" fill="#f87171" font-family="Segoe UI,sans-serif" font-size="10" text-anchor="middle">מכסה</text>
  <text x="120" y="262" fill="#94a3b8" font-family="Segoe UI,sans-serif" font-size="11">Claude session — resets 14:00</text>
</svg>